<svg width="14" height="15" xmlns="http://www.w3.org/2000/svg"><path d="M7 9.736c.416 0 .805-.107 1.168-.32.363-.213.65-.499.864-.856.213-.357.32-.744.32-1.16 0-.416-.107-.805-.32-1.168a2.396 2.396 0 0 0-.864-.864A2.265 2.265 0 0 0 7 5.048c-.416 0-.803.107-1.16.32a2.416 2.416 0 0 0-.856.864c-.213.363-.32.752-.32 1.168 0 .416.107.803.32 1.16.213.357.499.643.856.856.357.213.744.32 1.16.32zm4.976-1.68l1.392 1.088a.311.311 0 0 1 .112.208.377.377 0 0 1-.048.24l-1.344 2.304a.292.292 0 0 1-.168.144.354.354 0 0 1-.232-.016l-1.648-.656c-.427.31-.805.528-1.136.656l-.24 1.744a.406.406 0 0 1-.12.208.29.29 0 0 1-.2.08H5.656a.29.29 0 0 1-.2-.08.325.325 0 0 1-.104-.208l-.256-1.744a4.03 4.03 0 0 1-1.12-.656l-1.664.656c-.17.075-.304.032-.4-.128L.568 9.592a.377.377 0 0 1-.048-.24.311.311 0 0 1 .112-.208L2.04 8.056a5.003 5.003 0 0 1-.032-.656c0-.288.01-.507.032-.656L.632 5.656a.311.311 0 0 1-.112-.208.377.377 0 0 1 .048-.24l1.344-2.304c.096-.16.23-.203.4-.128l1.664.656a5.165 5.165 0 0 1 1.12-.656l.256-1.744a.325.325 0 0 1 .104-.208.29.29 0 0 1 .2-.08h2.688a.29.29 0 0 1 .2.08.406.406 0 0 1 .12.208l.24 1.744c.416.16.795.379 1.136.656l1.648-.656a.354.354 0 0 1 .232-.016c.07.021.125.07.168.144l1.344 2.304a.377.377 0 0 1 .048.24.311.311 0 0 1-.112.208l-1.392 1.088c.021.15.032.368.032.656 0 .288-.01.507-.032.656z"/></svg>