<svg id="图层_1" data-name="图层 1" xmlns="http://www.w3.org/2000/svg" viewBox="0 0 128 128"><path d="M121.58,100.77a3.33,3.33,0,0,1-3.33-3.33h0v-9a3.33,3.33,0,0,1,6.65,0v9a3.32,3.32,0,0,1-3.32,3.33Zm-16,18.62a3.32,3.32,0,0,1-1.66-6.22l7.82-4.52a3.32,3.32,0,1,1,3.57,5.61,2,2,0,0,1-.25.14l-7.82,4.53A3.22,3.22,0,0,1,105.61,119.39Zm-16.3,0a3.24,3.24,0,0,1-1.66-.43l-7.82-4.56a3.32,3.32,0,1,1,3.08-5.89,2,2,0,0,1,.25.14L91,113.17a3.33,3.33,0,0,1-1.67,6.22Zm-16-18.62A3.33,3.33,0,0,1,70,97.44h0v-9a3.33,3.33,0,0,1,6.65,0v9a3.33,3.33,0,0,1-3.32,3.33ZM81.5,77.61a3.33,3.33,0,0,1-1.67-6.22l7.82-4.52a3.32,3.32,0,1,1,3.57,5.61l-.24.14-7.82,4.56A3.24,3.24,0,0,1,81.5,77.61Zm31.93,0a3.22,3.22,0,0,1-1.66-.43L104,72.66a3.33,3.33,0,0,1,3.32-5.76l7.82,4.53a3.33,3.33,0,0,1-1.66,6.22Z"/><path d="M105.58,119.39a3.33,3.33,0,0,1-3-1.86,5.72,5.72,0,0,0-10.27,0,3.33,3.33,0,0,1-6-2.93,12.37,12.37,0,0,1,22.22,0,3.32,3.32,0,0,1-1.52,4.45,3.27,3.27,0,0,1-1.47.34ZM97.46,78.15a12.34,12.34,0,0,1-11.11-6.92,3.33,3.33,0,0,1,6-2.93,5.72,5.72,0,0,0,10.28,0,3.33,3.33,0,1,1,6,2.93A12.31,12.31,0,0,1,97.46,78.15ZM121,91.72a12.37,12.37,0,0,1-10.18-19.26,3.33,3.33,0,1,1,5.52,3.72,5.73,5.73,0,0,0,1.54,7.95,5.8,5.8,0,0,0,3.45,1,3.33,3.33,0,1,1,.26,6.65ZM81.46,114.84a3.34,3.34,0,0,1-3.31-3.35,3.43,3.43,0,0,1,.55-1.81,5.72,5.72,0,0,0-5.12-8.88,3.33,3.33,0,0,1-.43-6.65,12.37,12.37,0,0,1,11,19.22,3.33,3.33,0,0,1-2.7,1.47ZM74,91.72h-.87a3.33,3.33,0,1,1,.44-6.65h0a5.73,5.73,0,0,0,5.12-8.89A3.32,3.32,0,0,1,83.87,72a3.13,3.13,0,0,1,.29.42A12.37,12.37,0,0,1,73.91,91.72Zm39.48,23.12a3.34,3.34,0,0,1-2.76-1.47,12.37,12.37,0,0,1,11.11-19.22,3.32,3.32,0,0,1-.43,6.62,5.72,5.72,0,0,0-5.16,8.91,3.32,3.32,0,0,1-2.76,5.19Zm-16-11.08a10.85,10.85,0,1,1,10.85-10.84v.13a10.88,10.88,0,0,1-10.85,10.71Zm0-15.07a4.15,4.15,0,1,0,.1,0Z"/><path d="M57.05,66.41A27.71,27.71,0,1,1,84.76,38.7,27.73,27.73,0,0,1,57.05,66.41Zm0-47.42A19.71,19.71,0,1,0,76.76,38.7,19.73,19.73,0,0,0,57.05,19Z"/><path d="M70,119.39H6.35a4,4,0,0,1-4-4A54.72,54.72,0,0,1,75,63.7a4,4,0,1,1-2.62,7.55,46.75,46.75,0,0,0-61.83,40.14H70a4,4,0,0,1,0,8Z"/></svg>