<svg id="图层_1" data-name="图层 1" xmlns="http://www.w3.org/2000/svg" viewBox="0 0 16 16"><path d="M2.75,12.92H13.48a1.17,1.17,0,0,0,.82-.32,1.05,1.05,0,0,0,.35-.78v-2a1.15,1.15,0,0,0-1.17-1.1h-3l-.31-1.84A3.28,3.28,0,0,0,11.84,4a3.16,3.16,0,0,0-.29-1.31,3.31,3.31,0,0,0-.79-1.08,3.78,3.78,0,0,0-2.57-1,3.88,3.88,0,0,0-2.61,1A3.22,3.22,0,0,0,4.5,4,3.3,3.3,0,0,0,6.19,6.86L5.88,8.7H2.75A1.22,1.22,0,0,0,1.92,9a1.08,1.08,0,0,0-.34.79v2a1.15,1.15,0,0,0,1.17,1.1ZM2.88,10H6A1.15,1.15,0,0,0,7.15,9l.41-2h0A1.05,1.05,0,0,0,7,5.86,2.07,2.07,0,0,1,5.85,4,2.25,2.25,0,0,1,8.18,1.87,2.23,2.23,0,0,1,10.51,4,2,2,0,0,1,9.4,5.83,1.1,1.1,0,0,0,8.81,7h0l.4,2a1.16,1.16,0,0,0,1.14,1h3v1.69H2.88Zm11.36,3.89H2a.65.65,0,0,0-.65.65.66.66,0,0,0,.65.66H14.24a.67.67,0,0,0,.66-.66A.66.66,0,0,0,14.24,13.87Z"/></svg>