<svg id="图层_1" data-name="图层 1" xmlns="http://www.w3.org/2000/svg" viewBox="0 0 128 128"><path d="M63.46,8.76a2.9,2.9,0,0,0-2.09,1.18l-52.29,48C7.69,59.46,7.69,61,7.69,62.61S9.78,65,11.18,65H22.33v46.38H11.18c-2.1,0-3.49,2.36-3.49,3.93s1.39,3.93,3.49,3.93H115.74c2.09,0,3.49-1.57,3.49-3.93s-1.4-3.93-3.49-3.93h-9.06V65h9.06a3.79,3.79,0,0,0,3.49-2.35c.69-1.58,0-3.15-1.4-4.72L65.55,9.94a2.92,2.92,0,0,0-2.09-1.18ZM20.94,57.1,63.46,17.8,106,57.1Zm60,54.24V65H99.71v46.38Zm-25.8,0V65H73.92v46.38Zm-25.79,0V65H48.12v46.38Z"/></svg>