<svg t="1667202298800" class="icon" viewBox="0 0 1024 1024" version="1.1" xmlns="http://www.w3.org/2000/svg" p-id="1997" id="mx_n_1667202298802" width="800" height="800"><path d="M960 800h-128v128h-64v-128h-128v-64h128v-128h64v128h128v64z m-448-256a256 256 0 1 1 0-512 256 256 0 0 1 0 512z m0-448a192 192 0 1 0 0 384 192 192 0 0 0 0-384z m128 531.84v66.88a378.624 378.624 0 0 0-128-22.72c-166.976 0-307.584 107.2-360.512 256H84.8c55.36-184.576 224.576-320 427.2-320 44.736 0 87.424 7.616 128 19.84z" p-id="1998"></path></svg>
