<?xml version="1.0" encoding="utf-8"?>
<!-- Generator: Adobe Illustrator 25.2.3, SVG Export Plug-In . SVG Version: 6.00 Build 0)  -->
<svg version="1.1" id="图层_1" xmlns="http://www.w3.org/2000/svg" xmlns:xlink="http://www.w3.org/1999/xlink" x="0px" y="0px"
	 viewBox="0 0 128 128" style="enable-background:new 0 0 128 128;" xml:space="preserve">
<g>
	<path d="M30.3,19.7c0.1,0,0.1,0,0.2,0h67.2c0.1,0,0.3,0,0.4,0c1-0.1,1.8-0.5,2.5-1.2c0.6-0.7,1-1.6,0.9-2.6c-0.1-1-0.5-1.8-1.2-2.5
		c-0.7-0.6-1.6-1-2.6-0.9l-67.2,0c-0.1,0-0.3,0-0.4,0c-1,0.1-1.8,0.5-2.5,1.2c-0.6,0.7-1,1.6-0.9,2.6c0.1,1,0.5,1.8,1.2,2.5
		C28.6,19.4,29.4,19.7,30.3,19.7z"/>
	<path d="M109.5,37.7C109.4,37.7,109.4,37.7,109.5,37.7l-90.5,0c0,0-0.1,0-0.1,0c-4.4,0-8,3.5-8,7.9v62.1c0.1,4.4,3.7,7.9,8.1,7.9
		h90.4c0,0,0.1,0,0.1,0c4.4,0,8-3.5,8-7.9V45.6C117.4,41.2,113.8,37.7,109.5,37.7z M50.2,44.9h27.7v37.9l-10-10
		c-1.5-1.5-3.9-1.6-5.5-0.1L50.2,83.7V44.9z M110.2,45.6v62.1c0,0.4-0.4,0.7-0.8,0.7h0H19c-0.4,0-0.8-0.3-0.8-0.7V45.6
		c0-0.4,0.3-0.8,0.8-0.8h23.2v47.9c0,1.6,0.9,3,2.4,3.7c0.5,0.2,1.1,0.3,1.6,0.3c1,0,1.9-0.4,2.7-1l16-14.6l14.1,14.1
		c1.1,1.1,2.9,1.5,4.4,0.9c1.5-0.6,2.5-2.1,2.5-3.7V44.9h23.5v-0.5h0h0v0.5C109.8,44.9,110.2,45.2,110.2,45.6z"/>
	<path d="M22.7,32.7c0.1,0,0.1,0,0.2,0h82.3c0.1,0,0.3,0,0.4,0c2-0.1,3.5-1.8,3.4-3.8c-0.1-1-0.5-1.8-1.2-2.5
		c-0.7-0.6-1.6-1-2.6-0.9l-82.2,0c-0.1,0-0.3,0-0.4,0c-2,0.1-3.5,1.8-3.4,3.8C19.3,31.2,20.9,32.7,22.7,32.7z"/>
</g>
</svg>
