<svg id="图层_1" data-name="图层 1" xmlns="http://www.w3.org/2000/svg" viewBox="0 0 128 128"><path d="M47,12H23.57a12.06,12.06,0,0,0-12,12.06V47.5A12.06,12.06,0,0,0,23.57,59.56H47A12.07,12.07,0,0,0,59.08,47.5V24.06A12.07,12.07,0,0,0,47,12Zm4,35.5a4,4,0,0,1-4,4H23.57a4,4,0,0,1-4-4V24.06a4,4,0,0,1,4-4H47a4,4,0,0,1,4,4ZM71.81,25.76a4,4,0,0,1,4-4H112a4,4,0,1,1,0,8H75.82A4,4,0,0,1,71.81,25.76ZM116,45.8a4,4,0,0,1-4,4H75.82a4,4,0,0,1,0-8H112A4,4,0,0,1,116,45.8ZM47,68.92H23.57a12.06,12.06,0,0,0-12,12v23.45a12.06,12.06,0,0,0,12.05,12.06H47a12.07,12.07,0,0,0,12.06-12.06V81A12.08,12.08,0,0,0,47,68.91Zm4,35.5a4,4,0,0,1-4,4H23.57a4,4,0,0,1-4-4V81a4,4,0,0,1,4-4H47a4,4,0,0,1,4,4Zm65-21.75a4,4,0,0,1-4,4H75.82a4,4,0,0,1,0-8H112A4,4,0,0,1,116,82.67Zm0,20a4,4,0,0,1-4,4H75.82a4,4,0,0,1,0-8H112A4,4,0,0,1,116,102.72Z"/></svg>