<svg id="图层_1" data-name="图层 1" xmlns="http://www.w3.org/2000/svg" viewBox="0 0 128 128"><defs><style>.cls-1{fill:none;stroke:#000;stroke-linecap:round;stroke-linejoin:round;stroke-width:6px;}</style></defs><path d="M64.43,37.29,69.6,47.75,71,50.52,74,51l11.52,1.64-8.35,8.11L75,62.92,75.48,66l1.94,11.46L67.13,72l-2.76-1.41L61.6,72,51.32,77.44,53.26,66l.53-3.06-2.24-2.18-8.23-8.11L54.84,51l3.06-.47,1.35-2.77,5.18-10.46m0-13.28L54,45.11,30.74,48.52,47.61,65l-4,23.21L64.48,77.26,85.35,88.19,81.35,65,98.22,48.52,75,45.11,64.43,24Z"/><path d="M64.8,107.1A51.15,51.15,0,0,1,44.89,8.86,51.15,51.15,0,0,1,84.7,103.08,50.8,50.8,0,0,1,64.8,107.1Zm0-94.55A43.46,43.46,0,1,0,95.6,25.36l-.1-.09A43.15,43.15,0,0,0,64.8,12.55Z"/><polyline class="cls-1" points="22.14 77.14 6.47 106.43 24.64 102.64 35.64 118.64 44.17 100.67"/><polyline class="cls-1" points="106.14 78.14 121.17 106.43 102.99 102.64 91.99 118.64 83.47 100.67"/></svg>