<?xml version="1.0" encoding="utf-8"?>
<!-- Generator: Adobe Illustrator 25.2.3, SVG Export Plug-In . SVG Version: 6.00 Build 0)  -->
<svg version="1.1" id="图层_1" xmlns="http://www.w3.org/2000/svg" xmlns:xlink="http://www.w3.org/1999/xlink" x="0px" y="0px"
	 viewBox="0 0 128 128" style="enable-background:new 0 0 128 128;" xml:space="preserve">
<g>
	<path d="M65.6,11.8c-10,0-18.1,7.9-18.5,17.8C25.4,37,19.7,58.7,19.5,59.7l9,2.3c0.2-0.7,4.6-17.1,20.7-23.2
		c3.1,6,9.3,10.1,16.5,10.1c10.2,0,18.5-8.3,18.5-18.5C84.1,20.1,75.8,11.8,65.6,11.8z M65.6,39.5c-5.1,0-9.2-4.1-9.2-9.2
		c0-5.1,4.1-9.2,9.2-9.2c5.1,0,9.2,4.1,9.2,9.2C74.9,35.4,70.7,39.5,65.6,39.5z"/>
	<path d="M109.6,75.8c4.5-22.5-11.3-38.3-12-39l-6.5,6.6c0.5,0.5,12.5,12.6,9.6,29.6c-0.3,0-0.7-0.1-1-0.1
		c-10.2,0-18.5,8.3-18.5,18.5s8.3,18.5,18.5,18.5s18.5-8.3,18.5-18.5C118.2,84.9,114.7,79.1,109.6,75.8z M99.7,100.7
		c-5.1,0-9.2-4.1-9.2-9.2s4.1-9.2,9.2-9.2s9.2,4.1,9.2,9.2S104.8,100.7,99.7,100.7z"/>
	<path d="M43.4,99.6c1.8-2.9,2.9-6.2,2.9-9.8c0-10.2-8.3-18.5-18.5-18.5S9.2,79.6,9.2,89.8s8.3,18.5,18.5,18.5
		c3.2,0,6.2-0.8,8.9-2.3c9.4,8,20,9.9,27.9,9.9c6.8,0,11.6-1.4,12-1.5l-2.6-8.9C73.2,105.8,56.8,110.3,43.4,99.6z M18.5,89.8
		c0-5.1,4.1-9.2,9.2-9.2s9.2,4.1,9.2,9.2S32.8,99,27.8,99S18.5,94.9,18.5,89.8z"/>
</g>
</svg>
