<svg id="图层_1" data-name="图层 1" xmlns="http://www.w3.org/2000/svg" viewBox="0 0 128 128"><path d="M11,104.57a3.6,3.6,0,0,1-3.6-3.6V14.81a3.6,3.6,0,0,1,7.2,0V101A3.6,3.6,0,0,1,11,104.57Zm53.77,14.36a3.6,3.6,0,0,1-3.6-3.6V29.17a3.6,3.6,0,1,1,7.2,0v86.16A3.6,3.6,0,0,1,64.79,118.93Z"/><path d="M64.79,32.76a3.3,3.3,0,0,1-.93-.12L10.72,18.29a3.6,3.6,0,0,1,1.88-6.95L65.73,25.7a3.59,3.59,0,0,1-.94,7.06Zm0,86.17a3.71,3.71,0,0,1-.93-.12L10.72,104.44a3.6,3.6,0,0,1,1.88-7l53.13,14.36a3.6,3.6,0,0,1-.94,7.08Z"/><path d="M64.78,32.76a3.6,3.6,0,0,1-.93-7.07L117,11.33a3.6,3.6,0,1,1,1.88,6.94L65.73,32.64a3.44,3.44,0,0,1-1,.12ZM79,54.15a3.6,3.6,0,0,1-1-7l25.13-7.37a3.6,3.6,0,0,1,2,6.91L80,54A3.83,3.83,0,0,1,79,54.15Zm.09,18.08a3.6,3.6,0,0,1-1-7l25.13-7.37a3.6,3.6,0,1,1,2,6.91L80.1,72.09a3.9,3.9,0,0,1-1,.14Zm.1,18.13a3.6,3.6,0,0,1-1-7.06l25.13-7.36a3.6,3.6,0,0,1,2,6.91L80.2,90.21a3.58,3.58,0,0,1-1,.15ZM50.39,54.15a3.85,3.85,0,0,1-1-.14L24.25,46.64a3.6,3.6,0,0,1,2-6.91L51.39,47.1a3.6,3.6,0,0,1-1,7ZM50.3,72.23a4,4,0,0,1-1-.14L24.16,64.72a3.6,3.6,0,0,1,2-6.91l25.13,7.37a3.6,3.6,0,0,1-1,7Zm-.09,18.13a3.48,3.48,0,0,1-1-.15L24.07,82.85a3.6,3.6,0,1,1,2-6.91L51.21,83.3a3.6,3.6,0,0,1-1,7.06Zm14.57,28.57a3.6,3.6,0,0,1-.93-7.08L117,97.49a3.6,3.6,0,1,1,1.89,7L65.73,118.81a3.87,3.87,0,0,1-1,.12Z"/><path d="M118.4,104.57a3.6,3.6,0,0,1-3.6-3.6V14.81a3.6,3.6,0,1,1,7.2,0V101A3.6,3.6,0,0,1,118.4,104.57Z"/></svg>