<svg id="图层_1" data-name="图层 1" xmlns="http://www.w3.org/2000/svg" viewBox="0 0 128 128"><defs><style>.cls-1{fill:none;stroke:#000;stroke-miterlimit:10;stroke-width:8px;}</style></defs><path d="M64.5,10.56,112,20.11V70.78c-5.2,16.54-14.86,29.46-28.72,38.43a68.39,68.39,0,0,1-18.41,8.39c-16-5.78-28.12-15.07-36-27.66A53,53,0,0,1,21.51,72V20l43-9.43m-.07-8.18L13.51,13.56V72.61s4.63,37.83,50.92,53.32c0,0,41.66-7.66,55.54-53.95V13.56L64.43,2.38Z"/><line class="cls-1" x1="34.37" y1="62.82" x2="96.14" y2="62.82"/><line class="cls-1" x1="65.25" y1="31.93" x2="65.25" y2="93.7"/></svg>