<svg id="图层_1" data-name="图层 1" xmlns="http://www.w3.org/2000/svg" viewBox="0 0 128 128"><path d="M118.16,115.05H11.41a4,4,0,0,1-4-4V19.83a4,4,0,0,1,4-4H36.52a4,4,0,0,1,2.56.93L57.44,32h60.72a4,4,0,0,1,4,4v75A4,4,0,0,1,118.16,115.05Zm-102.75-8h98.75V40H56a4,4,0,0,1-2.56-.92L35.08,23.83H15.41Z"/><path d="M45.33,78.74a14,14,0,1,1,14-14A14,14,0,0,1,45.33,78.74Zm0-19.94a6,6,0,1,0,6,6A6,6,0,0,0,45.33,58.8Z"/><path d="M64.16,99.33a4,4,0,0,1-4-4,14.83,14.83,0,0,0-29.66,0,4,4,0,0,1-8,0,22.83,22.83,0,0,1,45.66,0A4,4,0,0,1,64.16,99.33Z"/><path d="M102.4,72.64H77.7a4,4,0,0,1,0-8h24.7a4,4,0,0,1,0,8Z"/><path d="M90.05,55.68a4,4,0,0,1-4-4V39.9a4,4,0,1,1,8,0V51.68A4,4,0,0,1,90.05,55.68Z"/><path d="M102.4,89.9H77.7a4,4,0,0,1,0-8h24.7a4,4,0,0,1,0,8Z"/></svg>