<svg id="图层_1" data-name="图层 1" xmlns="http://www.w3.org/2000/svg" viewBox="0 0 128 128"><path d="M43,76.23a3.37,3.37,0,1,1,0-6.74H84.28a3.37,3.37,0,0,1,0,6.74Zm-.5,18.23a3.37,3.37,0,0,1,0-6.74H83.77a3.37,3.37,0,1,1,0,6.74ZM24.2,117.71c-5.82,0-9.11-3.68-9.11-9.22V18.32c0-5.33,2.73-10,9.34-10H82.51a3.68,3.68,0,0,1,2.93,5.89,3.66,3.66,0,0,1-2.93,1.47H22.44v94.64h84.44v-1.43c0-2.12,0-3.71,0-5.72v-58a3.68,3.68,0,1,1,7.36,0v63.75c0,2.77-.61,4.89-1.79,6.29-1.39,1.64-3.74,2.48-7,2.48ZM98.67,11.52l.86-1.06c.72-.88,1.69-2.09,2.29-2.75A5.31,5.31,0,0,1,105.87,6a7.71,7.71,0,0,1,2.46.42,12.17,12.17,0,0,1,5.46,4.77,5.36,5.36,0,0,1,0,6.09c-1,1.4-1.84,2.43-2.14,2.81l-.78,1L98.67,11.52Zm-23,45.78A2.2,2.2,0,0,1,74,56.67a3.34,3.34,0,0,1-.73-2.55,70.12,70.12,0,0,1,1.56-9.86,10,10,0,0,1,1.55-3.14c1.23-1.71,16.43-21.85,19.47-25.88l.77-1,12.16,9.55-.74,1c-4.3,5.72-18.36,24.47-19.15,25.48a11.56,11.56,0,0,1-2.5,2.36,54.85,54.85,0,0,1-9.54,4.54,5.15,5.15,0,0,1-1.2.17Z"/></svg>