<svg id="图层_1" data-name="图层 1" xmlns="http://www.w3.org/2000/svg" viewBox="0 0 128 128"><path d="M22.22,116.29a3.75,3.75,0,0,1-3.77-3.74v-9.18a44.48,44.48,0,0,1,8-25.53A45.52,45.52,0,0,1,47.05,61.52L48.42,61l-1.16-.91a26.49,26.49,0,0,1-10.32-21,26.89,26.89,0,0,1,53.77,0,26.48,26.48,0,0,1-10.32,21L79.22,61l1.37.55a45.37,45.37,0,0,1,20.58,16.3,44.39,44.39,0,0,1,8,25.53v9.18a3.77,3.77,0,0,1-3.78,3.75Zm41.61-50.5A37.73,37.73,0,0,0,26,103.36v5.45h75.64v-5.44A37.73,37.73,0,0,0,63.83,65.79Zm0-45.91a19.21,19.21,0,1,0,19.33,19.2,19.28,19.28,0,0,0-19.33-19.2ZM3.73,102.52A3.76,3.76,0,0,1,0,98.77v-7.1A35.66,35.66,0,0,1,19.38,59.84l1-.51-.74-.82a22,22,0,0,1-5.79-14.83A22.23,22.23,0,0,1,35.7,21.56l-.24.38a28.07,28.07,0,0,0-4.28,8A14.55,14.55,0,0,0,30,57h0a3.77,3.77,0,0,1,2.58,3.46A3.81,3.81,0,0,1,29.93,64l-.87.21A28.36,28.36,0,0,0,7.51,91.67V95h4.42a44.74,44.74,0,0,0-.75,7.49H3.73Zm112.68,0a44.85,44.85,0,0,0-.75-7.49h4.42V91.67A28.36,28.36,0,0,0,98.53,64.18L97.65,64a3.81,3.81,0,0,1-2.7-3.5A3.75,3.75,0,0,1,97.52,57h0a14.54,14.54,0,0,0-1.16-27,28.15,28.15,0,0,0-4.29-8l-.24-.37a22.22,22.22,0,0,1,21.89,22.11A22,22,0,0,1,108,58.51l-.74.82,1,.51a35.66,35.66,0,0,1,19.43,31.83v7.11a3.77,3.77,0,0,1-3.78,3.74h-7.45Z"/></svg>