<svg id="图层_1" data-name="图层 1" xmlns="http://www.w3.org/2000/svg" viewBox="0 0 128 128"><defs><style>.cls-1{fill:#f2eae1;}.cls-2{fill:#d3bda9;}.cls-3{fill:#b89b6e;}</style></defs><circle class="cls-1" cx="64" cy="64" r="64"/><path class="cls-2" d="M47.24,26H80.76a3.59,3.59,0,0,1,3.59,3.59v3.6a8.92,8.92,0,0,1-8.92,8.92H52.57a8.92,8.92,0,0,1-8.92-8.92v-3.6A3.59,3.59,0,0,1,47.24,26Z"/><path class="cls-3" d="M87.74,34.56v.72A10.71,10.71,0,0,1,77,46H51A10.71,10.71,0,0,1,40.26,35.28v-.72a8.81,8.81,0,0,0-7.63,8.72V95.2a8.8,8.8,0,0,0,8.8,8.8H86.57a8.8,8.8,0,0,0,8.8-8.8V43.28A8.81,8.81,0,0,0,87.74,34.56ZM43.65,55.67H63.52a3.4,3.4,0,0,1,0,6.79H43.65a3.4,3.4,0,0,1,0-6.79ZM83.5,93H43.65a3.39,3.39,0,0,1,0-6.78H83.5a3.39,3.39,0,0,1,0,6.78Zm0-15.26H43.65a3.4,3.4,0,0,1,0-6.79H83.5a3.4,3.4,0,0,1,0,6.79Z"/></svg>