<svg id="图层_1" data-name="图层 1" xmlns="http://www.w3.org/2000/svg" viewBox="0 0 128 128"><defs><style>.cls-1{fill:#bfcbd9;}</style></defs><path class="cls-1" d="M123,4.92H5.16A5.16,5.16,0,0,0,0,10.08V95.53a5.16,5.16,0,0,0,5.16,5.16H59v12.48H23.58a5.16,5.16,0,1,0,0,10.31h81a5.16,5.16,0,1,0,0-10.31H69.3V100.69H123a5.15,5.15,0,0,0,5.16-5.16V10.08A5.15,5.15,0,0,0,123,4.92Zm-5.15,85.45H10.32V15.24H117.86V90.37Z"/><path class="cls-1" d="M34.13,77.81a5.16,5.16,0,0,0,5.16-5.16V47A5.16,5.16,0,0,0,29,47V72.65A5.16,5.16,0,0,0,34.13,77.81Zm30,0a5.15,5.15,0,0,0,5.16-5.16V32.35a5.16,5.16,0,1,0-10.31,0V72.64A5.17,5.17,0,0,0,64.11,77.81Zm30.15,0a5.16,5.16,0,0,0,5.16-5.16V56.23a5.16,5.16,0,1,0-10.32,0V72.65A5.16,5.16,0,0,0,94.26,77.81Z"/></svg>