<?xml version="1.0" standalone="no"?><!DOCTYPE svg PUBLIC "-//W3C//DTD SVG 1.1//EN" "http://www.w3.org/Graphics/SVG/1.1/DTD/svg11.dtd"><svg t="1666678271474" class="icon" viewBox="0 0 1024 1024" version="1.1" xmlns="http://www.w3.org/2000/svg" p-id="4319" xmlns:xlink="http://www.w3.org/1999/xlink" width="800" height="800"><path d="M654.7 128.7l-27.9 27.9c-28.6 28.6-44.4 66.8-44.4 107.5s15.8 78.8 44.4 107.5c28.6 28.6 66.8 44.4 107.5 44.4s78.8-15.8 107.5-44.4l51.9-51.9c1.5 10.7 2.3 21.5 2.3 32.4 0 59.8-23.3 116.1-65.6 158.4C788.1 552.7 731.8 576 672 576c-28.9 0-56.9-5.4-83.5-16.1l-39.2-15.8-29.9 29.9-295.1 295.2c-8.5 8.5-20 13.2-32.3 13.2-12.3 0-23.7-4.7-32.3-13.2-8.5-8.5-13.2-20-13.2-32.3s4.7-23.7 13.2-32.3l293.1-293.1 30.8-30.8-17.3-39.9c-12.2-28.1-18.3-58-18.3-88.9 0-59.8 23.3-116.1 65.6-158.4 38.2-38.1 87.8-60.8 141.1-64.8M672 64c-159.1 0-288 128.9-288 288 0 40.6 8.4 79.2 23.6 114.3L114.5 759.4c-42.6 42.6-42.6 112.4 0 155.1 21.3 21.3 49.4 32 77.5 32s56.2-10.7 77.5-32l295.1-295.1C597.8 632.7 634.1 640 672 640c159.1 0 288-128.9 288-288 0-54.2-15-104.9-41-148.2L796.5 326.3c-17.1 17.1-39.7 25.7-62.2 25.7-22.6 0-45.1-8.6-62.2-25.7-34.2-34.2-34.2-90.2 0-124.5L786.3 87.6C751.2 72.4 712.6 64 672 64z" p-id="4320"></path></svg>