<svg id="图层_1" data-name="图层 1" xmlns="http://www.w3.org/2000/svg" viewBox="0 0 128 128"><path d="M104.92,7.5a5.39,5.39,0,0,0-4.08,1.72c-.6.66-1.58,1.88-2.3,2.77l-.87,1.06,12.25,9.62.78-1c.31-.38,1.12-1.42,2.16-2.83a5.38,5.38,0,0,0,0-6.12,12.19,12.19,0,0,0-5.5-4.81,7.78,7.78,0,0,0-2.47-.42ZM81.4,9.89H23c-6.65,0-9.39,4.65-9.39,10v90.74c0,5.58,3.31,9.28,9.17,9.28h81.76c3.27,0,5.64-.84,7-2.5,1.2-1.41,1.8-3.54,1.8-6.33V46.94a3.7,3.7,0,1,0-7.4,0v65.57H21V17.29H81.4a3.7,3.7,0,0,0,3-1.48,3.7,3.7,0,0,0-3-5.92Zm14.25,5.88-.78,1c-3.05,4.05-18.35,24.33-19.59,26A10.25,10.25,0,0,0,73.72,46a71.06,71.06,0,0,0-1.58,9.93,3.4,3.4,0,0,0,.74,2.56,2.23,2.23,0,0,0,1.66.64A4.79,4.79,0,0,0,75.75,59a53.79,53.79,0,0,0,9.6-4.57A11.43,11.43,0,0,0,87.86,52c.8-1,15-19.88,19.28-25.64l.74-1L95.65,15.77ZM83.18,71.39H41.67a3.4,3.4,0,0,0,0,6.79H83.18a3.4,3.4,0,1,0,0-6.79Zm-.5,18.35H41.16a3.4,3.4,0,0,0,0,6.79H82.68a3.4,3.4,0,0,0,0-6.79Z"/></svg>