<svg id="图层_1" data-name="图层 1" xmlns="http://www.w3.org/2000/svg" viewBox="0 0 128 128"><path d="M113.77,64.35a4.22,4.22,0,0,0-4.22,4.23v38.48c0,.82-1.79,2.33-4.73,2.33H23.27c-2.92,0-4.72-1.51-4.72-2.33V66.52a4.23,4.23,0,1,0-8.45,0v40.55a10.06,10.06,0,0,0,4.35,8.05,15,15,0,0,0,8.82,2.73h81.55a15,15,0,0,0,8.83-2.73,10.06,10.06,0,0,0,4.35-8.05V68.58A4.24,4.24,0,0,0,113.77,64.35Z"/><path d="M55.62,90.55a11.67,11.67,0,0,0,8.3,3.5H64a11.67,11.67,0,0,0,8.28-3.41l19.19-19a4.23,4.23,0,1,0-6-6L68.16,82.81a4.73,4.73,0,0,0,.12-1V24.64a4.23,4.23,0,1,0-8.45,0V81.8A4.45,4.45,0,0,0,60,83L42.63,65.41a4.23,4.23,0,0,0-6,6Z"/></svg>