<svg id="图层_1" data-name="图层 1" xmlns="http://www.w3.org/2000/svg" viewBox="0 0 128 128"><path d="M44.61,119.64H24.17a11.31,11.31,0,0,1-11.3-11.3V17.82a11.31,11.31,0,0,1,11.3-11.3H97.55a11.31,11.31,0,0,1,11.3,11.3V44.2a4.37,4.37,0,1,1-8.74,0V17.82a2.59,2.59,0,0,0-2.56-2.56H24.17a2.59,2.59,0,0,0-2.56,2.56v90.52a2.59,2.59,0,0,0,2.56,2.56H44.61a4.37,4.37,0,0,1,0,8.74Z"/><path d="M79.84,37.41H35.29a4.37,4.37,0,0,1,0-8.74H79.84a4.37,4.37,0,0,1,0,8.74Zm-6,21.4H35.33a4.37,4.37,0,1,1,0-8.74h38.5a4.37,4.37,0,1,1,0,8.74ZM61.27,80.65H35.47a4.37,4.37,0,1,1,0-8.74h25.8a4.37,4.37,0,0,1,0,8.74Zm-4,38.35-.43-20c-.75-2.37.39-4.82,1.77-6.37L94.54,52.28a5.9,5.9,0,0,1,3.87-2,5.71,5.71,0,0,1,4.37,1.42l14.81,13.19a5.84,5.84,0,0,1,.4,8.24l-9,10.23a4.37,4.37,0,0,1-6.55-5.78l7.16-8.12L99.17,60.21,65.54,98q0,.32,0,.63l.23,10.63,9.29-1.07c.15-.15.3-.31.44-.47l0,0L94,87.39a4.37,4.37,0,1,1,6.46,5.88L82,113.52a17.49,17.49,0,0,1-1.88,1.83,5.83,5.83,0,0,1-4.44,1.53ZM57,99.38h0Z"/><path d="M105,84.87a4.35,4.35,0,0,1-3.14-1.33L88.38,69.62a4.37,4.37,0,0,1,6.27-6.09l13.5,13.93A4.37,4.37,0,0,1,105,84.87Z"/></svg>