<svg id="图层_1" data-name="图层 1" xmlns="http://www.w3.org/2000/svg" viewBox="0 0 128 128"><path d="M80.09,11.62H23.56a8.08,8.08,0,0,0-8.08,8.08v88.83H7.41a4,4,0,1,0,0,8.07H120.46a4,4,0,1,0,0-8.07h-8.07V35.85a8.07,8.07,0,0,0-8.08-8.07H88.16V19.7a8.07,8.07,0,0,0-8.07-8.08ZM23.56,108.53V19.7H80.09v88.83Zm64.6,0V35.85h16.15v72.68ZM68,35.85H59.89a4,4,0,0,0,0,8.08H68a4,4,0,0,0,0-8.08Zm-24.22,0H35.67a4,4,0,0,0,0,8.08h8.08a4,4,0,0,0,0-8.08ZM68,52H59.89a4,4,0,0,0,0,8.08H68A4,4,0,0,0,68,52ZM43.75,52H35.67a4,4,0,0,0,0,8.08h8.08a4,4,0,0,0,0-8.08ZM68,68.15H59.9a4,4,0,1,0,0,8.08H68a4,4,0,1,0,0-8.08Zm-24.22,0H35.67a4,4,0,0,0,0,8.08h8.08a4,4,0,0,0,0-8.08ZM68,84.3H59.9a4,4,0,0,0,0,8.08H68a4,4,0,1,0,0-8.08Zm-24.22,0H35.67a4,4,0,0,0,0,8.08h8.08a4,4,0,0,0,0-8.08Z"/></svg>