<?xml version="1.0" encoding="utf-8"?>
<!-- Generator: Adobe Illustrator 25.2.3, SVG Export Plug-In . SVG Version: 6.00 Build 0)  -->
<svg version="1.1" id="图层_1" xmlns="http://www.w3.org/2000/svg" xmlns:xlink="http://www.w3.org/1999/xlink" x="0px" y="0px"
	 viewBox="0 0 128 128" style="enable-background:new 0 0 128 128;" xml:space="preserve">
<g>
	<path d="M62.5,127.6H13.9c-4.3,0-7.8-3.5-7.8-7.8V8.4c0-4.3,3.5-7.8,7.8-7.8h48.6c4.3,0,7.8,3.5,7.8,7.8s-3.5,7.8-7.8,7.8H21.7V112
		h40.8c4.3,0,7.8,3.5,7.8,7.8S66.8,127.6,62.5,127.6z"/>
</g>
<g>
	<path d="M115.7,71.7H47c-4.2,0-7.6-3.4-7.6-7.6s3.4-7.6,7.6-7.6h68.7c4.2,0,7.6,3.4,7.6,7.6S119.9,71.7,115.7,71.7z"/>
</g>
<g>
	<path d="M93.9,95.2c-1.7,0-3.5-0.7-4.8-2c-2.6-2.6-2.6-6.9,0-9.6l19.5-19.5L89.1,44.6c-2.6-2.6-2.6-6.9,0-9.6
		c2.6-2.6,6.9-2.6,9.6,0L123,59.3c2.6,2.6,2.6,6.9,0,9.6L98.7,93.2C97.4,94.5,95.6,95.2,93.9,95.2z"/>
</g>
</svg>
