<svg id="图层_1" data-name="图层 1" xmlns="http://www.w3.org/2000/svg" viewBox="0 0 128 128"><path d="M8.59,113.93a4.34,4.34,0,0,0,1.12,3,3.62,3.62,0,0,0,2.7,1.23H36.66a4,4,0,0,0,3.84-4.2V93.12H8.59ZM36.67,17.65H12.43a4,4,0,0,0-3.84,4.18V86.12H40.5V21.85A4,4,0,0,0,36.67,17.65Zm-12.18,32A6.47,6.47,0,1,1,31,43.16,6.46,6.46,0,0,1,24.49,49.62Zm22.44,64.31a4.38,4.38,0,0,0,1.11,3,3.66,3.66,0,0,0,2.71,1.23H75a4,4,0,0,0,3.83-4.2V93.12H46.93ZM75,17.65H50.76a4,4,0,0,0-3.83,4.18V86.12H78.84V21.85A4,4,0,0,0,75,17.65Zm-12.18,32a6.46,6.46,0,1,1,6.46-6.45A6.46,6.46,0,0,1,62.83,49.62Z"/><path d="M85.26,113.93a4.34,4.34,0,0,0,1.12,3,3.66,3.66,0,0,0,2.71,1.23h24.24a4,4,0,0,0,3.84-4.2V93.12H85.26Zm28.09-96.28H89.1a4,4,0,0,0-3.84,4.18V86.12h31.91V21.85a4,4,0,0,0-3.82-4.2Zm-12.19,32a6.47,6.47,0,1,1,6.47-6.46A6.46,6.46,0,0,1,101.16,49.62Z"/></svg>