<svg id="图层_1" data-name="图层 1" xmlns="http://www.w3.org/2000/svg" viewBox="0 0 128 128"><path d="M94.09,60.76H34.66a4,4,0,1,0,0,8H94.11a4,4,0,1,0,0-8Z"/><path d="M109.38,12.15H18.07A12.27,12.27,0,0,0,5.81,24.41V103a12.27,12.27,0,0,0,12.26,12.25h91.31A12.27,12.27,0,0,0,121.64,103V24.41A12.27,12.27,0,0,0,109.38,12.15Zm4.56,81.41v8.88a5.17,5.17,0,0,1-5.16,5.16H18.67a5.17,5.17,0,0,1-5.16-5.16V25a5.17,5.17,0,0,1,5.16-5.16h90.11A5.17,5.17,0,0,1,113.94,25Z"/><path d="M82,83H34.66a4,4,0,1,0,0,8H82a4,4,0,0,0,0-8Z"/><path d="M94.11,38.57H34.66a4,4,0,1,0,0,8H94.11a4,4,0,1,0,0-8Z"/></svg>