<svg id="图层_1" data-name="图层 1" xmlns="http://www.w3.org/2000/svg" viewBox="0 0 128 128"><defs><style>.cls-1{fill:none;stroke:#000;stroke-miterlimit:10;stroke-width:7px;}</style></defs><path d="M109.49,98.9v-44h9.69a4.08,4.08,0,0,0,3.72-2.23c.75-1.49,0-3-1.49-4.47L65.52,2.76q-2.23-2.23-4.47,0L5.15,48.22a5.47,5.47,0,0,0-1.49,4.47c0,1.49,2.24,2.23,3.73,2.23H19.31v44m82.73,0H81.91v-44H102Zm-27.58-44v44H54.34v-44ZM63.28,10.21l45.46,37.26H17.82ZM26.76,54.92H46.89v44H26.76Zm87,107.4"/><rect class="cls-1" x="9.66" y="101.14" width="109" height="18" rx="0.72"/></svg>