<svg id="图层_1" data-name="图层 1" xmlns="http://www.w3.org/2000/svg" viewBox="0 0 128 128"><path d="M108.69,65.74a4.11,4.11,0,0,0-4.11,4.11h0v36a1.37,1.37,0,0,1-1.37,1.37H21.36A1.37,1.37,0,0,1,20,105.83V24.44a1.37,1.37,0,0,1,1.37-1.37H71a4.12,4.12,0,0,0,0-8.23H21.36a9.61,9.61,0,0,0-9.6,9.6v81.39a9.62,9.62,0,0,0,9.6,9.6H103.2a9.62,9.62,0,0,0,9.6-9.6v-36a4.11,4.11,0,0,0-4.11-4.11ZM119.9,33.86,99.07,13.28a4.12,4.12,0,0,0-6,5.67c.06.06.12.13.19.19L107.13,32.8C58.81,34.73,48.09,79.51,48,80a4.12,4.12,0,0,0,8,1.94l0-.12c.38-1.69,9.33-39,51.27-40.79L92.43,56.57a4.11,4.11,0,1,0,5.95,5.68h0L120,39.62A4.1,4.1,0,0,0,119.9,33.86Z"/></svg>