<svg id="图层_1" data-name="图层 1" xmlns="http://www.w3.org/2000/svg" viewBox="0 0 128 128"><defs><style>.cls-1{fill:none;stroke:#000;stroke-miterlimit:10;stroke-width:7px;}</style></defs><rect class="cls-1" x="85.83" y="84.65" width="13.65" height="14.45" rx="0.87" transform="translate(-37.83 92.43) rotate(-45)"/><ellipse class="cls-1" cx="54.66" cy="27.14" rx="48" ry="21"/><path class="cls-1" d="M69.44,71.12a105.78,105.78,0,0,1-14.78,1c-26.51,0-48-9.4-48-21,0-4,2.5-7.67,6.85-10.83"/><path class="cls-1" d="M94.46,39.4c5.17,3.35,8.2,7.39,8.2,11.74,0,3.62-2.1,7-5.79,10"/><path class="cls-1" d="M64.33,95.71c-3.13.28-6.36.43-9.67.43-26.51,0-48-9.4-48-21,0-4,2.5-7.67,6.85-10.83"/><path class="cls-1" d="M76.54,117.83a100.41,100.41,0,0,1-21.88,2.31c-26.51,0-48-9.4-48-21,0-4,2.5-7.67,6.85-10.83"/><circle class="cls-1" cx="92.66" cy="91.14" r="30"/></svg>