<svg id="图层_1" data-name="图层 1" xmlns="http://www.w3.org/2000/svg" viewBox="0 0 128 128"><path d="M119.34,20.78H10.56v87H119.34ZM25.07,86.24c0-3.79,6.69-7,15.82-8V75.94a23.54,23.54,0,0,1-8.46-10c-1.38-.68-2.39-2.45-3.21-5.54a4.22,4.22,0,0,1,1.31-4.63C31,45.07,37.38,38.91,46.82,38.91s15.38,6,16,16.39a3.81,3.81,0,0,1,1.62,4.48c-.76,2.85-1.69,4.45-3,5a23.19,23.19,0,0,1-8.7,11.11v2.37c9.14,1,15.83,4.18,15.83,8C68.58,90.82,25.07,90.82,25.07,86.24Zm76.14-8.65H75.83a3.63,3.63,0,1,1,0-7.26h25.38a3.63,3.63,0,1,1,0,7.26Zm0-18.13H75.83a3.63,3.63,0,1,1,0-7.26h25.38a3.63,3.63,0,1,1,0,7.26Z"/></svg>