<svg id="图层_1" data-name="图层 1" xmlns="http://www.w3.org/2000/svg" viewBox="0 0 128 128"><defs><style>.cls-1{font-size:47.9px;}.cls-1,.cls-2{font-family:DIN-Medium, DIN;font-weight:500;}.cls-2{font-size:31.05px;}</style></defs><path d="M50.14,23.12c10.2-4.29,22.54-3.76,33.27,1.07A44.1,44.1,0,0,1,106,47.8a43.51,43.51,0,0,1-.54,33.81A44.07,44.07,0,0,1,81.8,104.15c-10.19,4.29-22.53,3.75-33.27-1.08A44.05,44.05,0,0,1,26,79.46a5.34,5.34,0,0,0-4.3-3.22,4,4,0,0,0-2.14.54,6.49,6.49,0,0,0-2.69,2.68,4.64,4.64,0,0,0,0,3.76c4.83,12.88,15,24.15,27.91,29.51a52.47,52.47,0,0,0,22,4.83,53,53,0,0,0,18.78-3.22c12.88-4.83,24.15-15,29.51-27.9,4.83-14.49,5.37-29,.54-41.86h0c-4.83-12.87-15-24.14-27.9-29.51C75.9,9.17,60.88,9.17,47.46,14A59.48,59.48,0,0,0,26,28l-1.08,1.61V15.61a4.5,4.5,0,0,0-4.83-4.83,4.5,4.5,0,0,0-4.83,4.83V44.66c.24,7.84,8.24,5.84,9.24,2.84C30.2,30.4,50.14,23.12,50.14,23.12Z"/><text class="cls-1" transform="translate(39.38 83.17)">90</text><text class="cls-2" transform="translate(81.88 59.23)">°</text></svg>