<svg id="图层_1" data-name="图层 1" xmlns="http://www.w3.org/2000/svg" viewBox="0 0 128 128"><defs><style>.cls-1{fill:#bfcbd9;stroke-miterlimit:10;stroke-width:2px;}.cls-1,.cls-2{stroke:#bec9d7;}.cls-2{fill:none;stroke-linecap:round;stroke-linejoin:round;stroke-width:10px;}</style></defs><path class="cls-1" d="M116.69,41.47a1.49,1.49,0,0,1,1.49,1.44v72.41a1.49,1.49,0,0,1-1.49,1.44H11.31a1.49,1.49,0,0,1-1.49-1.44V42.91a1.49,1.49,0,0,1,1.49-1.44H116.69m0-7.19H11.31A8.8,8.8,0,0,0,2.4,42.91v72.41A8.81,8.81,0,0,0,11.31,124H116.69a8.81,8.81,0,0,0,8.91-8.64V42.91A8.8,8.8,0,0,0,116.69,34.28Zm-4.88-7H15.89a3.6,3.6,0,1,1,0-7.2h95.92a3.6,3.6,0,1,1,0,7.2ZM103,12.12H24.67A3.66,3.66,0,0,1,21,8.52a3.67,3.67,0,0,1,3.71-3.6H103a3.67,3.67,0,0,1,3.71,3.6A3.66,3.66,0,0,1,103,12.12Z"/><polyline class="cls-2" points="43.06 39.8 43.06 97.92 65.01 77.9 84.64 97.53 84.64 39.8"/></svg>