<svg id="图层_1" data-name="图层 1" xmlns="http://www.w3.org/2000/svg" viewBox="0 0 128 128"><path d="M112.11,41.12a49.93,49.93,0,0,0-17.23-18.3,4,4,0,0,0-2.16-.77,3.75,3.75,0,0,0-3.64,3.85,3.91,3.91,0,0,0,2,3.44c12.53,7.76,20.32,22.13,20.32,37.5s-7.78,29.72-20.29,37.48a4.17,4.17,0,0,0-2.15,3.5,3.76,3.76,0,0,0,3.64,3.85,4.06,4.06,0,0,0,2.13-.74,50,50,0,0,0,17.3-18.31,53.71,53.71,0,0,0,0-51.5ZM98.88,66.84A31.35,31.35,0,0,0,95,51.67,29.35,29.35,0,0,0,84.8,40.89h0a5.21,5.21,0,0,0-2-.66,3.76,3.76,0,0,0-3.66,3.85,4,4,0,0,0,1.81,3.38,23,23,0,0,1-.33,39h0a3.89,3.89,0,0,0-1.75,3.3,3.76,3.76,0,0,0,3.65,3.86h0a4.74,4.74,0,0,0,1.85-.52h0A30.41,30.41,0,0,0,98.88,66.84ZM68.66,13.46A4.18,4.18,0,0,0,64,14h0c-.63.53-6.33,5.32-12.53,10.17C40.27,33,36.87,34.53,36.2,34.78H14.42a3.74,3.74,0,0,0-3.64,3.84V95.1a3.74,3.74,0,0,0,3.64,3.84H38.85c.64.27,3.85,1.88,13.78,10.49,3.39,2.93,7.31,6.46,11,9.94l.19.17h0a4.17,4.17,0,0,0,2.89,1.17,4.23,4.23,0,0,0,1.8-.41,4.74,4.74,0,0,0,2.69-4.2c0-.18,0-18.84,0-19.21s-.16-78.5-.16-79.29A4.61,4.61,0,0,0,68.66,13.46ZM63.94,96.28l-.06,12.3c-1.85-1.67-3.65-3.24-5.34-4.7-13.6-11.69-17-12.67-19.33-12.67H20.58c-2.12,0-2.57-.51-2.57-2.88V45c0-1.66.18-2.45,1.8-2.45H36.36c2.26,0,5.72-1,20.58-12.52,2.26-1.76,4.65-3.66,6.94-5.51C63.89,31.67,63.94,96,63.94,96.28Z"/></svg>