<svg id="图层_1" data-name="图层 1" xmlns="http://www.w3.org/2000/svg" viewBox="0 0 128 128"><path d="M92.43,119.79h0a25,25,0,0,0,11.73-5.39,29.08,29.08,0,0,0,7.76-11.34c.24-.68.26-.76.49-1.46,2.59-7.82-3.83-18.29-16-24.73-6.63-3.51-13.52-5-18.9-4-4,.73-7,2.79-8.44,5.83a3.65,3.65,0,0,1-1.58.94c-.16,0-.51.09-1.12-.4a.38.38,0,0,1-.12-.09A105.68,105.68,0,0,1,55.73,68.24,108.93,108.93,0,0,1,47.51,57a3.19,3.19,0,0,1-.3-2.19,1.1,1.1,0,0,1,.39-.3,10.38,10.38,0,0,0,6.94-5.2c3.09-5.28,3.3-13.61.55-22.28C50.88,13.71,41.54,4.81,33.37,6.29l-.23,0A9.68,9.68,0,0,0,32,6.65,25.34,25.34,0,0,0,19,12.25C2.33,26.23,8,59.62,31.89,88.26,50.31,110.36,74.64,123,92.43,119.79ZM78.73,79.66C82.57,79,88,80.19,93.19,83c9.09,4.81,14.1,12.4,12.92,16.09-.18.57-.32.92-.42,1.21a21.18,21.18,0,0,1-6,8.89A18,18,0,0,1,91.19,113c-15.18,2.77-37.4-9.22-54-29.17C16.47,59,10.15,28.63,23.38,17.51a18.61,18.61,0,0,1,9.88-4.08,3.8,3.8,0,0,0,.82-.21,3.53,3.53,0,0,1,.46-.15c4-.73,10.81,6,14,16,2.1,6.64,2.13,13.2.07,16.72a3.47,3.47,0,0,1-2.34,1.94,7.8,7.8,0,0,0-5.1,3.75c-1.25,2.3-1.23,5.1.07,8.32a4.07,4.07,0,0,0,.28.55,116.14,116.14,0,0,0,8.93,12.27A113.81,113.81,0,0,0,61.94,84.56a3.88,3.88,0,0,0,.58.42,8,8,0,0,0,6.2,1.44,10.7,10.7,0,0,0,5.93-3.64,3.4,3.4,0,0,0,.52-.88c.56-1.42,2.25-2,3.56-2.24ZM92.11,62.3a3.47,3.47,0,0,0,3.41-2.85,21.21,21.21,0,0,0-17-24.66,3.47,3.47,0,0,0-1.25,6.83A14.25,14.25,0,0,1,88.69,58.2a3.48,3.48,0,0,0,2.79,4,3.36,3.36,0,0,0,.63.06Zm17.43.79A3.47,3.47,0,0,0,113,60.24,36.4,36.4,0,0,0,83.72,17.89a3.47,3.47,0,1,0-1.25,6.83A29.44,29.44,0,0,1,106.12,59a3.48,3.48,0,0,0,2.79,4A3.36,3.36,0,0,0,109.54,63.09Z"/></svg>