<svg id="图层_1" data-name="图层 1" xmlns="http://www.w3.org/2000/svg" viewBox="0 0 128 128"><path d="M114.39,86.56c-4.32-3.11-10.46-5.66-18.25-7.57a3.46,3.46,0,0,0-1.93,6.65l.28.07c12.79,3.14,20.42,8.11,20.42,13.3,0,4.31-5.48,8.58-15,11.71s-22.87,5-36.21,5-26.58-1.82-36.23-5-15-7.39-15-11.7c0-5.11,7.6-10.07,20.31-13.25A3.46,3.46,0,1,0,31,79.05c-7.75,2-13.84,4.5-18.14,7.59C6.78,91.05,5.49,95.81,5.49,99c0,5.38,3.43,12.92,19.78,18.29,10.32,3.38,24.32,5.33,38.39,5.33s28-2,38.36-5.33c16.37-5.37,19.81-12.9,19.81-18.29,0-3.25-1.29-8-7.44-12.46Z"/><path d="M59.29,104.69l.11.14a5.64,5.64,0,0,0,4.25,1.94,5.26,5.26,0,0,0,4.29-2.12c2.33-2.81,10.39-12.73,18.23-24.42,11.34-16.93,17.09-29.91,17.09-38.6a39.67,39.67,0,0,0-79.33,0c0,8.69,5.75,21.68,17.11,38.61C48.9,92,57,101.93,59.29,104.69ZM63.59,9A32.75,32.75,0,0,1,96.34,41.63c0,13.75-20.11,42-32.75,57.41C51,83.59,30.85,55.38,30.85,41.63A32.75,32.75,0,0,1,63.59,9Z"/><path d="M83.59,40A19.93,19.93,0,1,0,63.66,59.9,19.93,19.93,0,0,0,83.59,40ZM54.46,49.18A12.73,12.73,0,0,1,50.66,40,13,13,0,1,1,63.66,53a12.83,12.83,0,0,1-9.17-3.78Z"/></svg>