<svg id="图层_1" data-name="图层 1" xmlns="http://www.w3.org/2000/svg" viewBox="0 0 128 128"><path d="M114.18,106.24l-9.91-9a26.13,26.13,0,1,0-6.14,6.6l10,9.07a1,1,0,0,0,1.38-.06l4.75-5.22A1,1,0,0,0,114.18,106.24Zm-31.8-6.12A17.09,17.09,0,1,1,99.46,83a17.1,17.1,0,0,1-17.08,17.08Z"/><path d="M51.41,106.2H25.93V23.43h75.93V46.62a1,1,0,0,0,1,1h7a1,1,0,0,0,1-1V18.92a4.5,4.5,0,0,0-4.51-4.5H21.42a4.5,4.5,0,0,0-4.51,4.5V110.7a4.51,4.51,0,0,0,4.51,4.51h30a1,1,0,0,0,1-1v-7A1,1,0,0,0,51.41,106.2Z"/><path d="M38.18,30.13a1,1,0,0,0-1,1v7a1,1,0,0,0,1,1H89a1,1,0,0,0,1-1v-7a1,1,0,0,0-1-1ZM53,51.71H38.6a1,1,0,0,0-1,1v7a1,1,0,0,0,1,1H53a1,1,0,0,0,1-1v-7A1,1,0,0,0,53,51.71Z"/></svg>