<svg id="图层_1" data-name="图层 1" xmlns="http://www.w3.org/2000/svg" viewBox="0 0 128 128"><path d="M72.45,21.65V74.12H56.53V21.65H72.45m-38.35,0V74.12H18.19V21.65H34.1M72.43,97.12v9H56.53v-9h15.9m-38.33,0v9H18.19v-9H34.1M76.61,13.65H52.36a4,4,0,0,0-3.83,4.18V82.12H80.45V17.85a4,4,0,0,0-3.84-4.2Zm-38.34,0H14a4,4,0,0,0-3.84,4.18V82.12H42.1V17.85a4,4,0,0,0-3.83-4.2ZM80.43,89.12H48.53v20.81a4.34,4.34,0,0,0,1.12,3,3.62,3.62,0,0,0,2.7,1.23H76.6a4,4,0,0,0,3.83-4.2V89.12Zm-38.33,0H10.19v20.81a4.34,4.34,0,0,0,1.12,3A3.64,3.64,0,0,0,14,114.12H38.26a4,4,0,0,0,3.84-4.2V89.12Z"/><path d="M110.77,21.65V74.12H94.87V21.65h15.9m0,75.47v9H94.87v-9h15.9M115,13.65H90.7a4,4,0,0,0-3.83,4.18V82.12h31.9V17.85a4,4,0,0,0-3.82-4.2Zm3.82,75.47H86.87v20.81a4.38,4.38,0,0,0,1.11,3,3.66,3.66,0,0,0,2.71,1.23h24.25a4,4,0,0,0,3.83-4.2V89.12Z"/></svg>