<svg id="图层_1" data-name="图层 1" xmlns="http://www.w3.org/2000/svg" viewBox="0 0 128 128"><path d="M44.79,120.45H24.54a11.21,11.21,0,0,1-11.2-11.2V19.56a11.21,11.21,0,0,1,11.2-11.2H97.25a11.21,11.21,0,0,1,11.19,11.2V45.7a4.33,4.33,0,1,1-8.65,0V19.56A2.58,2.58,0,0,0,97.25,17H24.54A2.57,2.57,0,0,0,22,19.56v89.69a2.57,2.57,0,0,0,2.54,2.54H44.79a4.33,4.33,0,1,1,0,8.66Z"/><path d="M79.7,39H35.56a4.33,4.33,0,0,1,0-8.66H79.7a4.33,4.33,0,0,1,0,8.66Zm-6,21.2H35.59a4.33,4.33,0,0,1,0-8.66H73.74a4.33,4.33,0,0,1,0,8.66ZM61.3,81.82H35.73a4.33,4.33,0,0,1,0-8.66H61.3a4.33,4.33,0,0,1,0,8.66Zm-4,38L56.91,100c-.75-2.35.39-4.78,1.75-6.31l35.6-40a5.88,5.88,0,0,1,3.84-2,5.72,5.72,0,0,1,4.33,1.4l14.68,13.08a5.8,5.8,0,0,1,.4,8.17l-8.94,10.13a4.33,4.33,0,0,1-6.49-5.73l7.09-8L98.86,61.57,65.53,99q0,.31,0,.63l.23,10.52,9.2-1c.16-.16.3-.31.44-.47l0,0L93.73,88.5a4.33,4.33,0,1,1,6.41,5.83L81.88,114.39A16.44,16.44,0,0,1,80,116.2a5.8,5.8,0,0,1-4.4,1.52Zm-.29-19.45h0Z"/><path d="M104.65,86a4.31,4.31,0,0,1-3.11-1.32L88.16,70.88a4.33,4.33,0,1,1,6.22-6l13.37,13.79a4.34,4.34,0,0,1-3.1,7.35Z"/></svg>