<?xml version="1.0" standalone="no"?><!DOCTYPE svg PUBLIC "-//W3C//DTD SVG 1.1//EN" "http://www.w3.org/Graphics/SVG/1.1/DTD/svg11.dtd"><svg t="1667805105907" class="icon" viewBox="0 0 1041 1024" version="1.1" xmlns="http://www.w3.org/2000/svg" p-id="7596" xmlns:xlink="http://www.w3.org/1999/xlink" width="203.3203125" height="200"><path d="M964.8 134.4h-883.2c-42.24 0-76.8 34.56-76.8 76.8v518.4c0 42.24 34.56 76.8 76.8 76.8H262.4l86.784 86.784c2.432 2.432 6.4 2.432 8.832 0L444.8 806.4h520c42.24 0 76.8-34.56 76.8-76.8V211.2c0-42.24-34.56-76.8-76.8-76.8z m-380.8 460.8h-352c-17.664 0-32-14.336-32-32s14.336-32 32-32h352c17.664 0 32 14.336 32 32s-14.336 32-32 32z m230.4-179.2h-582.4c-17.664 0-32-14.336-32-32s14.336-32 32-32h582.4c17.664 0 32 14.336 32 32s-14.336 32-32 32z" fill="#666666" p-id="7597"></path></svg>