<svg id="图层_1" data-name="图层 1" xmlns="http://www.w3.org/2000/svg" viewBox="0 0 128 128"><defs><style>.cls-1{font-size:47.9px;}.cls-1,.cls-2{font-family:DIN-Medium, DIN;font-weight:500;}.cls-2{font-size:31.05px;}</style></defs><path d="M106.74,47.5c1,3,9,5,9.23-2.84v-29a4.83,4.83,0,1,0-9.65,0v14L105.24,28A59.56,59.56,0,0,0,83.78,14C70.36,9.17,55.34,9.17,43.53,15.07c-12.88,5.37-23.07,16.64-27.9,29.51h0C10.8,57.46,11.34,72,16.17,86.44c5.36,12.88,16.63,23.07,29.51,27.9a54.21,54.21,0,0,0,40.78-1.61c12.88-5.36,23.07-16.63,27.9-29.51a4.57,4.57,0,0,0,0-3.76,6.47,6.47,0,0,0-2.68-2.68,4,4,0,0,0-2.15-.54,5.34,5.34,0,0,0-4.29,3.22A44,44,0,0,1,82.7,103.07c-10.73,4.83-23.07,5.37-33.27,1.08A44.1,44.1,0,0,1,25.82,81.61a43.46,43.46,0,0,1-.53-33.81A44.1,44.1,0,0,1,47.83,24.19c10.73-4.83,23.07-5.36,33.26-1.07C81.09,23.12,101,30.4,106.74,47.5Z"/><text class="cls-1" transform="translate(36.38 83.17)">90</text><text class="cls-2" transform="translate(78.88 59.23)">°</text></svg>