<?xml version="1.0" standalone="no"?><!DOCTYPE svg PUBLIC "-//W3C//DTD SVG 1.1//EN" "http://www.w3.org/Graphics/SVG/1.1/DTD/svg11.dtd"><svg t="1666669274983" class="icon" viewBox="0 0 1024 1024" version="1.1" xmlns="http://www.w3.org/2000/svg" p-id="3373" xmlns:xlink="http://www.w3.org/1999/xlink" width="800" height="800"><path d="M832 64 64 64l0 896 896 0L960 192 832 64zM704 128l0 256L320 384 320 128 704 128zM256 896 256 601.6 281.6 576l460.8 0L768 601.6 768 896 256 896zM896 896l-64 0L832 576l-64-64L256 512 192 576l0 320L128 896 128 128l128 0 0 320 512 0L768 128l38.4 0L896 217.6 896 896zM576 192l64 0 0 128-64 0 0-128ZM320 640l384 0 0 64-384 0 0-64ZM320 768l384 0 0 64-384 0 0-64Z" p-id="3374"></path></svg>