<svg id="图层_1" data-name="图层 1" xmlns="http://www.w3.org/2000/svg" viewBox="0 0 128 128"><path d="M93.36,64.27H70a3.79,3.79,0,0,1-3.27-1.88L55,42.14a3.69,3.69,0,0,1,0-3.77L66.69,18.12A3.79,3.79,0,0,1,70,16.24h23.4a3.79,3.79,0,0,1,3.27,1.88l11.69,20.25a3.69,3.69,0,0,1,0,3.77L96.63,62.39A3.92,3.92,0,0,1,93.36,64.27ZM72.17,56.73h19l9.56-16.48L91.15,23.78h-19l-9.5,16.47Z"/><path d="M72.88,95.62a3.79,3.79,0,0,1-3.33-2,3.72,3.72,0,0,1,1.51-5.09c2-1.07,2.76-2.08,2.76-2.58.07-1.07-1.76-3-3-3.78-2-1.06-19.68-10.68-26.66-14.9a14.76,14.76,0,0,0-9.94-2.2L13.65,78.33A3.78,3.78,0,0,1,9.56,72L31.13,58.14l.5-.12c.32-.13,7.74-2.33,16.35,2.83,7.17,4.21,26.41,14.71,26.6,14.84l.25.12c.69.44,6.79,4.59,6.54,10.5-.06,2.45-1.32,6-6.67,8.87a3.74,3.74,0,0,1-1.82.44Z"/><path d="M74.89,116.49c-6,0-16.09-1.44-32-7.86a72,72,0,0,0-27.48-4.15A3.74,3.74,0,1,1,15.1,97a76.6,76.6,0,0,1,30.62,4.72c22.07,8.93,31.37,7.35,33,6.91L102,93.73c4.78-3.08,6-4.9,6.29-5.47a5.29,5.29,0,0,0-.88-.5c-4.53,1.51-20.56,6.73-29.49,8-10.75,1.51-28.8-5.15-29.55-5.4a3.76,3.76,0,0,1,2.64-7c4.72,1.76,18.55,6,25.91,5,9.49-1.32,29.05-8,29.3-8l1-.32,1.07.25c.69.13,6.73,1.64,7.61,6.79,1,5.6-5.09,10.25-9.75,13.21l-24,15.34-.32.13a29.82,29.82,0,0,1-7,.81Z"/><circle cx="82" cy="40" r="8"/></svg>