<svg id="图层_1" data-name="图层 1" xmlns="http://www.w3.org/2000/svg" viewBox="0 0 128 128"><path d="M47.13,32.3A4,4,0,0,0,44.21,39L64,60.21a4,4,0,0,0,2.91,1.27h.18A4,4,0,0,0,70,60.21L89.83,39h0a4,4,0,0,0-.19-5.65h0a4,4,0,0,0-5.65.19L67,51.73l-17-18.16a4,4,0,0,0-2.92-1.27Z"/><path d="M107.52,9.38H28.06A10.48,10.48,0,0,0,17.58,19.85V43.69h-4a3.26,3.26,0,0,0-3.25,3.25l0,.41a3.26,3.26,0,0,0,3.23,2.85h4V79.81h-4a3.26,3.26,0,0,0-3.25,3.26l0,.41a3.26,3.26,0,0,0,3.23,2.84h4v20.23A10.48,10.48,0,0,0,28.06,117h79.46A10.48,10.48,0,0,0,118,106.54V19.85A10.48,10.48,0,0,0,107.52,9.38ZM28.06,110.52a4,4,0,0,1-4-4V19.85a4,4,0,0,1,4-4h79.46a4,4,0,0,1,4,4v86.69a4,4,0,0,1-4,4Zm59-54.24H47.13a4,4,0,0,0,0,8h16v8h-16a4,4,0,0,0-4,4l0,.5a4,4,0,0,0,4,3.5h16V95.78a4,4,0,0,0,4,4l.5,0a4,4,0,0,0,3.49-4V80.25h16a4,4,0,0,0,4-4l0-.5a4,4,0,0,0-4-3.49h-16v-8h16a4,4,0,1,0,0-8Z"/></svg>