<svg id="图层_1" data-name="图层 1" xmlns="http://www.w3.org/2000/svg" viewBox="0 0 128 128"><path d="M102.57,54H75.38a3.88,3.88,0,1,0,0,7.75h27.19a3.88,3.88,0,1,0,0-7.75Zm0,19.37H75.38a3.87,3.87,0,1,0,0,7.74h27.19a3.87,3.87,0,1,0,0-7.74ZM50.65,81.79V79.27A24.84,24.84,0,0,0,60,67.4c1.39-.6,2.39-2.31,3.2-5.36a4,4,0,0,0-1.73-4.77c-.67-11.12-7.18-17.52-17.15-17.52s-16.93,6.58-17.46,18a4.51,4.51,0,0,0-1.4,4.94c.87,3.3,1.95,5.19,3.44,5.91a25,25,0,0,0,9.06,10.7v2.49C28.16,82.84,21,86.26,21,90.31c0,4.88,46.62,4.88,46.62,0,0-4-7.17-7.47-17-8.52Z"/><path d="M122,20.39H5.45v92.94H122Zm-7.77,81.33a3.88,3.88,0,0,1-3.89,3.87H17.1a3.88,3.88,0,0,1-3.88-3.87V32a3.88,3.88,0,0,1,3.88-3.87h93.24A3.88,3.88,0,0,1,114.23,32Z"/></svg>