<svg id="图层_1" data-name="图层 1" xmlns="http://www.w3.org/2000/svg" viewBox="0 0 128 128"><path d="M113.83,98.44H63.07a15.48,15.48,0,0,0-30,0H13.25a3.87,3.87,0,0,0-2.73,1.12,3.86,3.86,0,0,0,0,5.46,3.83,3.83,0,0,0,2.73,1.13H33.08a15.48,15.48,0,0,0,30,0h50.77a3.86,3.86,0,0,0,3.86-3.86,3.91,3.91,0,0,0-1.13-2.73,3.79,3.79,0,0,0-2.71-1.12ZM48.06,110.17a7.86,7.86,0,1,1,7.72-7.85,7.87,7.87,0,0,1-7.72,7.85Zm65.77-50.41H94a15.48,15.48,0,0,0-30,0H13.25a3.86,3.86,0,1,0,0,7.72H64a15.48,15.48,0,0,0,30,0h19.83a3.89,3.89,0,0,0,2.73-1.13,3.81,3.81,0,0,0,1.15-2.73,3.86,3.86,0,0,0-3.86-3.86ZM79,71.47a7.85,7.85,0,1,1,7.71-7.85A7.83,7.83,0,0,1,79,71.47ZM13.25,28.81H33.08a15.48,15.48,0,0,0,30,0h50.77a3.89,3.89,0,0,0,2.73-1.13A3.81,3.81,0,0,0,117.69,25a3.86,3.86,0,0,0-3.86-3.86H63.07a15.49,15.49,0,0,0-30,0H13.25a3.88,3.88,0,0,0-2.73,1.13A3.92,3.92,0,0,0,9.39,25a3.86,3.86,0,0,0,3.86,3.86ZM48.06,17.08a7.85,7.85,0,1,1-7.71,7.85A7.85,7.85,0,0,1,48.06,17.08Z"/></svg>