<svg id="图层_1" data-name="图层 1" xmlns="http://www.w3.org/2000/svg" viewBox="0 0 128 128"><path d="M115.87,100.59V91.28H78v12.63h34.51a3.32,3.32,0,0,0,3.32-3.32ZM15,60.91v9.31H69.63V57.59H18.31A3.33,3.33,0,0,0,15,60.91Zm0,33.68v9.32H48.62V91.28H18.31A3.32,3.32,0,0,0,15,94.59Zm0-67.36v9.31H36V23.91H18.31A3.33,3.33,0,0,0,15,27.23Zm25.22-7.52V45h21V15.5H44.42a4.2,4.2,0,0,0-4.21,4.21Zm75.66,13.52V23.92H65.43V36.56h47.12a3.35,3.35,0,0,0,3.32-3.33Zm-42,20.15V78.65h21V49.19H78a4.17,4.17,0,0,0-4.2,4.19Zm42,13.53V57.6H99.06V70.22h13.49a3.31,3.31,0,0,0,3.32-3.31Zm-63,20.15v25.26h21V82.86H57a4.2,4.2,0,0,0-4.21,4.2Z"/></svg>