<svg id="图层_1" data-name="图层 1" xmlns="http://www.w3.org/2000/svg" viewBox="0 0 128 128"><path d="M83.18,35.84c-18.07,0-30.86-6-33.12-12.05,0-7.52,15-12.79,33.12-12.79,10.83,0,20.76,2.06,26.7,5.44,3.56,2,5.67,4.53,5.67,7.35a11.1,11.1,0,0,1-3.91,4.68c-5.45,4.12-15.73,7.37-28.46,7.37Zm0,64.75H77.49V84C87,86.38,108,81.76,115.55,76.49V90.05c0,6-14.3,10.54-32.37,10.54Zm0-21.09H77.49V62.94c3.42,1.37,15.53-.42,19.9-1.23,7.28-1.34,13.46-3.75,18.16-7.05v12.8C113.29,73.48,100.5,79.5,83.18,79.5Z"/><path d="M82.42,57.67h-3c-.75-9.78-14.3-15.06-29.35-16.56V32.83c7.53,4.51,18.81,8.28,33.12,8.28,13.55,0,24.85-3.77,31.62-8.28v12.8c-2.26,6-15,12-32.38,12Z"/><path d="M42.53,69.72c-17.32,0-30.11-5.27-32.37-12,0-6.77,15.05-12,32.37-12.8,18.07,0,32.37,6,32.37,12.8C72.64,63.69,59.84,69.72,42.53,69.72Z"/><path d="M42.53,93.81c-17.32,0-30.11-6-32.37-12V68.21c7.53,5.27,18.06,8.28,32.37,8.28s25.6-3,32.37-8.28V81.76c-2.26,6-15.06,12-32.37,12Z"/><path d="M42.53,116.39c-17.32,0-32.37-4.52-32.37-10.54V92.31c6.77,5.26,18.82,8.28,32.37,8.28,14.3,0,25.6-3.77,32.37-8.28v13.54c0,6-15.06,10.54-32.37,10.54Z"/></svg>