<svg id="图层_1" data-name="图层 1" xmlns="http://www.w3.org/2000/svg" viewBox="0 0 128 128"><path d="M27.56,16.76h72.67a3.34,3.34,0,1,0,0-6.67H27.56a3.34,3.34,0,1,0,0,6.67Z"/><path d="M19.43,30.77h88.93a3.34,3.34,0,1,0,0-6.67H19.43a3.34,3.34,0,1,0,0,6.67Z"/><path d="M112.89,37.31H15.18a8.16,8.16,0,0,0-8.26,8v67.15a8.16,8.16,0,0,0,8.26,8h97.71a8.16,8.16,0,0,0,8.26-8V45.31A8.16,8.16,0,0,0,112.89,37.31ZM49.25,44H78.54V84.76L68.25,74.48a4.62,4.62,0,0,0-6.4-.15L49.25,85.82Zm65,68.48a1.38,1.38,0,0,1-1.38,1.33H15.18a1.37,1.37,0,0,1-1.38-1.33V45.31A1.37,1.37,0,0,1,15.18,44H40V96.32a4.64,4.64,0,0,0,2.77,4.24,4.51,4.51,0,0,0,1.87.39,4.6,4.6,0,0,0,3.12-1.21L64.83,84.16,79.9,99.23A4.63,4.63,0,0,0,87.81,96V44h25.08a1.38,1.38,0,0,1,1.38,1.33Z"/></svg>