<svg id="图层_1" data-name="图层 1" xmlns="http://www.w3.org/2000/svg" viewBox="0 0 128 128"><path d="M66.15,70.5A34.82,34.82,0,1,1,101,35.68,34.85,34.85,0,0,1,66.15,70.5Zm0-62.9A28.09,28.09,0,1,0,94.23,35.68,28,28,0,0,0,66.15,7.6Z"/><path d="M10,126.67a3.47,3.47,0,0,1-3.37-3.37A59.64,59.64,0,0,1,66.15,63.77a3.37,3.37,0,1,1,0,6.73,52.88,52.88,0,0,0-52.8,52.8A3.46,3.46,0,0,1,10,126.67Z"/><path d="M118.71,89.82H67.49a3.37,3.37,0,1,1,0-6.74h40.44l-8.31-5.84a3.39,3.39,0,1,1,3.82-5.61l17.07,11.9a3.67,3.67,0,0,1,1.35,3.82,3.3,3.3,0,0,1-3.15,2.47ZM84.57,119.25a3.58,3.58,0,0,1-2-.67L65.47,106.67a3.54,3.54,0,0,1-1.12-3.82,3.39,3.39,0,0,1,3.14-2.24h51a3.37,3.37,0,1,1,0,6.74H78.05l8.31,5.84a3.28,3.28,0,0,1-1.79,6.06Z"/></svg>