<svg id="图层_1" data-name="图层 1" xmlns="http://www.w3.org/2000/svg" viewBox="0 0 128 128"><path d="M21.48,5.07h77a34.3,34.3,0,0,1,7.16.29A16.52,16.52,0,0,1,112.44,9a10.14,10.14,0,0,1,1.68,2,14.73,14.73,0,0,1,2.49,6.18,19.22,19.22,0,0,1,.11,3.31V67.67c0,3,.43,6.91-.85,8.64a4.68,4.68,0,0,1-6.6.54,4.94,4.94,0,0,1-1-1.27,31.6,31.6,0,0,1-.42-8.79V30.25l0-12a5.91,5.91,0,0,0-1-2.34c-1.65-2.22-4.17-2.06-8-2.06h-73A19.45,19.45,0,0,0,21,14a5.47,5.47,0,0,0-2.81,1.85,11.43,11.43,0,0,0-1.09,7v82c0,3.26-.23,5.67,1.23,7.49A5.31,5.31,0,0,0,21.17,114a14.51,14.51,0,0,0,3.09.11H58.58l3.41.07a4.33,4.33,0,0,1,3.4,2.72A4.47,4.47,0,0,1,63,122.59a21.29,21.29,0,0,1-6.42.32H27.82a42.68,42.68,0,0,1-7.83-.18,15.7,15.7,0,0,1-6.81-3.21,13.9,13.9,0,0,1-4.66-8.16,23.44,23.44,0,0,1-.18-4.43V21.46a26.64,26.64,0,0,1,.14-4.64A17.64,17.64,0,0,1,9.67,13a14,14,0,0,1,7.94-7.15,16.39,16.39,0,0,1,2.59-.66ZM31.76,33.91H90.43a12.83,12.83,0,0,1,4.32.35,4.54,4.54,0,0,1,2.56,4.53c-.63,3.81-3,4-7.37,4H35.22a16.39,16.39,0,0,1-4.74-.24,4.58,4.58,0,0,1-2.54-6,3.83,3.83,0,0,1,.3-.61,4.35,4.35,0,0,1,2.24-1.81Zm0,22.5h20c2.65,0,6.83-.41,8.53.59a4.44,4.44,0,0,1,2,4.85c-.9,3.85-4.25,3.42-8.93,3.42H38.09c-2.61,0-6.74.4-8.39-.6a4.7,4.7,0,0,1-1.25-6.52,3.55,3.55,0,0,1,.23-.31,4.32,4.32,0,0,1,2-1.26ZM74.1,71.79a5.74,5.74,0,0,1,2.14.24,4.52,4.52,0,0,1,2.56,5.86,8.13,8.13,0,0,1-2,2.44l-5,5H95.12a49.77,49.77,0,0,1,12.43.6,17.88,17.88,0,0,1,10.6,8.89,19.45,19.45,0,0,1,2.21,11.54,21.25,21.25,0,0,1-2.21,7.22,17.87,17.87,0,0,1-11.87,9.1,45.22,45.22,0,0,1-9.23.29H89.44a15.69,15.69,0,0,1-3.93-.17,4.27,4.27,0,0,1-3-4.85c.7-4,3.43-3.8,8-3.8h12.92a9.2,9.2,0,0,0,8-8.37,10.16,10.16,0,0,0-6.74-11.55,18.1,18.1,0,0,0-4-.17h-29l5,4.95a10.6,10.6,0,0,1,1.82,2,4.46,4.46,0,0,1-1.89,6l-.07,0a4.76,4.76,0,0,1-4.78-.56l-9.76-9.7L59,93.7a9.59,9.59,0,0,1-1.85-2.12,5.23,5.23,0,0,1-.32-1.5,5.05,5.05,0,0,1,2.39-4.75l8.25-8.16,3.12-3.1a9.72,9.72,0,0,1,1.73-1.6,12.79,12.79,0,0,1,1.78-.68Z"/></svg>