<svg id="图层_1" data-name="图层 1" xmlns="http://www.w3.org/2000/svg" viewBox="0 0 128 128"><defs><style>.cls-1{fill:none;stroke:#000;stroke-linecap:round;stroke-linejoin:round;stroke-width:8px;}</style></defs><path d="M25.63,62h14.5V95.84A4.83,4.83,0,0,0,45,100.67H87.8a4.83,4.83,0,1,0,0-9.66h-38V57.17A4.84,4.84,0,0,0,45,52.34H35.79L64.68,16.82,96.89,52.34H88.47a4.83,4.83,0,0,0-4.84,4.83V95.84a4.84,4.84,0,0,0,9.67,0V62h14.5a4.83,4.83,0,0,0,3.58-8.08L68.06,6.16a2.7,2.7,0,0,0-.34-.25c-.08-.08-.11-.18-.2-.24s-.3-.14-.44-.24a4.16,4.16,0,0,0-1.74-.7,5.22,5.22,0,0,0-1-.09,4.29,4.29,0,0,0-.8.12,4.23,4.23,0,0,0-1,.29,5,5,0,0,0-.79.47,4.74,4.74,0,0,0-.52.31,2.86,2.86,0,0,0-.22.3c-.09.1-.21.14-.29.24L21.87,54.12A4.83,4.83,0,0,0,25.63,62Z"/><line class="cls-1" x1="20.07" y1="114.85" x2="115.25" y2="114.85"/></svg>