<svg id="图层_1" data-name="图层 1" xmlns="http://www.w3.org/2000/svg" viewBox="0 0 128 128"><path d="M117.1,79.56H110V65.45a4,4,0,0,0-4-4.05H68.8V53.75h11a4,4,0,0,0,4-4V20.05a4,4,0,0,0-4-4.05H50.15a4,4,0,0,0-4,4.05V49.7a4,4,0,0,0,4,4H60.69V61.4H24a4,4,0,0,0-4,4.05V79.56H11.51a4,4,0,0,0-4,4.06v23.69a4,4,0,0,0,4.05,4H35.22a4,4,0,0,0,4-4V83.62a4,4,0,0,0-4-4.06H28v-10H60.69v10h-7.8a4,4,0,0,0-4,4.06v23.69a4,4,0,0,0,4,4H76.6a4,4,0,0,0,4.05-4V83.62a4,4,0,0,0-4.05-4.06H68.8v-10h33.11v10H93.4a4,4,0,0,0-4.05,4.06v23.69a4,4,0,0,0,4.05,4h23.71a4,4,0,0,0,4-4V83.62a4,4,0,0,0-4.05-4.06ZM54.21,24.11H75.75V45.65H54.21Zm-23,79.15H15.57V87.67H31.16Zm41.38,0H56.94V87.67h15.6Zm40.51,0H97.46V87.67h15.59Z"/></svg>