<?xml version="1.0" encoding="utf-8"?>
<!-- Generator: Adobe Illustrator 25.2.3, SVG Export Plug-In . SVG Version: 6.00 Build 0)  -->
<svg version="1.1" id="图层_1" xmlns="http://www.w3.org/2000/svg" xmlns:xlink="http://www.w3.org/1999/xlink" x="0px" y="0px"
	 viewBox="0 0 128 128" style="enable-background:new 0 0 128 128;" xml:space="preserve">
<style type="text/css">
	.st0{fill:#FFFFFF;}
</style>
<path class="st0" d="M100.5,61.5c-2.6,0-4.6,2.1-4.6,4.6c0,2.5,2.1,4.6,4.6,4.6c3.5,0,5.7-2.4,5.7-4.6S104,61.5,100.5,61.5z
	 M76.8,61.5c-2.5,0.2-4.4,2.1-4.6,4.6c0.2,2.5,2.1,4.4,4.6,4.6c3.5,0,5.7-2.4,5.7-4.6S80.3,61.5,76.8,61.5z"/>
<path class="st0" d="M112.9,101.5l2.8,9.3c0.3,0.9,0,1.8-0.7,2.4c-0.4,0.4-0.9,0.5-1.4,0.5c-0.4,0-0.7-0.1-1-0.3l-11.1-6
	c-4.1,1.2-8.4,1.8-12.7,2c-16.5,0-31.3-9-36.8-22.4c-1.8,0.5-3.6,0.8-5.4,0.8c-4.4-0.1-8.8-0.7-13.1-1.7h-0.1l-1.7-0.4L17.2,93
	c-0.8,0.4-1.8,0.3-2.4-0.3c-0.7-0.6-1-1.5-0.7-2.4c1.3-3.8,2.6-7.7,3.8-11.5C6.8,70.7,1,60.3,1,48.8c0-21.5,20.4-39,45.6-39
	c22.2,0,41.9,13.9,45.8,32.2v0.5c9.3,0.7,18,4.5,24.9,10.8c6.7,6.3,10.4,14.3,10.4,22.6C127.7,84.9,122.4,94,112.9,101.5
	L112.9,101.5z M121.4,75.9c0-15-15-27.7-32.8-27.7c-18.1,0-32.8,12.4-32.8,27.7s14.8,27.7,32.8,27.7c4,0,8-1,11.8-2
	c0.2-0.1,0.3-0.1,0.5-0.1c0.4,0,0.7,0.1,1,0.3l6.7,3.7l-1.6-5.3c-0.3-0.8,0-1.8,0.7-2.3C116.7,91.3,121.5,83.5,121.4,75.9z
	 M20.9,85.3l9.9-5c0.5-0.2,0.9-0.2,1.4-0.2l2.4,0.4c3.9,0.9,7.8,1.5,11.8,1.6c1.3,0,2.5-0.1,3.7-0.2h0.3c-0.7-2.3-1-4.7-1-7.1
	C49.5,57.4,66,43,86.3,42.5c-3.7-15.4-20.8-27-39.8-27c-21.8,0-39.5,15-39.5,33.4c0,10.2,5.3,19.1,15.7,26.4
	c0.8,0.5,1.1,1.5,0.8,2.5C22.6,80.2,21.8,82.8,20.9,85.3z"/>
<path class="st0" d="M38,35.8c0.1-3-2.1-5.5-5.1-5.7c-0.2,0-0.4,0-0.5,0c-3.3,0-6.8,2.2-6.8,5.7s3.5,5.7,6.8,5.7S38,39.2,38,35.8z
	 M62.7,41.5c2.9,0.2,5.5-2.1,5.7-5c0-0.2,0-0.4,0-0.6c0.1-3-2.1-5.5-5.1-5.7c-0.2,0-0.4,0-0.5,0c-3.3,0-6.8,2.2-6.8,5.7
	S59.4,41.5,62.7,41.5z"/>
</svg>
