<svg id="图层_1" data-name="图层 1" xmlns="http://www.w3.org/2000/svg" viewBox="0 0 128 128"><path d="M107,119.22H20a6.15,6.15,0,0,1-6.14-6.14V15.69A6.15,6.15,0,0,1,20,9.55H82a6.23,6.23,0,0,1,2,.07l.93.18.31.28h.43l25.52,25.17a5.44,5.44,0,0,1,1.88,2.88l0,.18a5.8,5.8,0,0,1,.08,2v72.78A6.14,6.14,0,0,1,107,119.22Zm-86.18-7h85.32V40.16L82.78,17.08h-.22l-.6-.53H20.85Z"/><path d="M86.66,87.59H40.22a6.08,6.08,0,0,1-5.92-6.23V66a.69.69,0,0,1,0-.21,6.08,6.08,0,0,1,6.07-5.93H50.7a18,18,0,1,1,25.63,0H86.8a6.09,6.09,0,0,1,5.93,6.23V81.66A6.09,6.09,0,0,1,86.66,87.59ZM41.3,81.43v0Zm0-14.61V80.59H85.73V66.82H67.86V57.45l1.61-1a11,11,0,1,0-15.22-3.3,11.08,11.08,0,0,0,3.31,3.3l1.61,1v9.37ZM86.57,80.59h0ZM40.43,66.82h0ZM85.73,66v0Z"/><path d="M89.08,93.05H37.92a3.53,3.53,0,0,0,0,7H89.08a3.53,3.53,0,0,0,0-7Z"/></svg>