<?xml version="1.0" standalone="no"?><!DOCTYPE svg PUBLIC "-//W3C//DTD SVG 1.1//EN" "http://www.w3.org/Graphics/SVG/1.1/DTD/svg11.dtd"><svg class="icon" width="800px" height="800.00px" viewBox="0 0 1024 1024" version="1.1" xmlns="http://www.w3.org/2000/svg"><path fill="#000000" d="M811.974537 862.529445c-13.094226 0-26.187429-4.994758-36.177967-14.985296l-600.670505-600.623433c-19.9821-19.980054-19.983123-52.376904-0.00307-72.357981 19.980054-19.9821 52.377928-19.983123 72.357981-0.00307l600.670505 600.623433c19.9821 19.980054 19.983123 52.376904 0.00307 72.357981C838.164013 857.532641 825.06774 862.529445 811.974537 862.529445zM211.303009 862.529445c-13.096273 0-26.189476-4.995781-36.180014-14.987343-19.980054-19.981077-19.97903-52.377928 0.00307-72.357981l600.670505-600.623433c19.981077-19.980054 52.378951-19.978007 72.357981 0.00307 19.980054 19.981077 19.97903 52.377928-0.00307 72.357981l-600.670505 600.623433C237.491461 857.533664 224.396211 862.529445 211.303009 862.529445z" /></svg>